<svg version="1" xmlns="http://www.w3.org/2000/svg" width="933.333" height="933.333" viewBox="0 0 700.000000 700.000000"><path d="M241.5 23c-15.1 2.2-24.2 4.3-36 8.3-42.2 14.5-79.3 46.8-98.9 86.3-8.3 16.6-14.4 34.9-16.2 48.2-.3 2.6-.8 5-1 5.3-.7 1.2-1.8 16.8-1.8 25.9.1 80 54.8 150.2 132.1 169.4 9 2.3 18.1 3.8 30.7 5 2.7.3 5.1.7 5.3 1 .8.8.7 41.6-.1 42.3-.4.4-18.5.7-40.4.8l-39.7.1-6.5-5.5c-3.6-3.1-7-6-7.6-6.6-5-4.5-10.1-9.1-17.4-15.5-4.6-4.1-9-8-9.6-8.5-.6-.6-4.4-3.9-8.4-7.5s-8.5-7.6-10-9c-1.5-1.4-4.3-3.8-6.1-5.4-3.4-3-15.9-14.1-29.9-26.6-27.6-24.7-27.1-24.4-36-24.4-9.8 0-16.2 4.1-20 12.8-2.1 4.6-2.1 5.3-2.1 172.4 0 102.9.4 169 1 170.9 3.5 11.8 18 18.6 29.2 13.6 2.4-1.1 9.4-6.4 15.5-11.9 6-5.4 14-12.5 17.7-15.8 3.6-3.2 7.9-7 9.5-8.5 1.5-1.4 4.6-4.2 6.9-6.2 7.9-6.9 28.8-25.4 29.3-25.9.7-.7 8.5-7.7 18.5-16.6 4.4-3.9 11.8-10.5 16.5-14.7l8.5-7.7h40.8c26.4 0 40.7.4 40.8 1 0 .5.1 11.4.1 24.1 0 12.7.5 25 1 27.2 3.3 15.5 16.5 29.2 32 33.3 7.3 1.9 348.2 1.9 355.4 0 16.6-4.4 28.8-16.9 32.4-33.2.8-3.4 1.1-42.8 1.1-129.9 0-136.8.2-131.2-5.8-141.5-5.8-9.8-18.3-19.1-28.1-20.6-2-.3-4.6-.7-5.7-.9-1.1-.2-4.2-.4-7-.4l-5-.1 3.5-2.1c5.6-3.4 22.1-20.7 27.3-28.6 15.3-23.4 21.7-46.5 20.4-73-.7-12.7-.8-13.8-3.7-25.6-2-8-2.9-10.4-8.2-21.7-10.1-21.7-29.5-41.8-52.1-53.8-7-3.8-21.5-9.3-27.7-10.6-1.4-.3-3.6-.7-5-1.1-5.7-1.2-18.2-2.2-25.6-2-33.7 1.1-61.9 13.6-84.8 37.5-10.6 11.1-17.5 22-25.7 40.5-2.2 5.1-5.6 19.2-6.6 28-4.8 40.6 12.2 82.3 44 107.7l6 4.8H378.6l8.2-8.3c24.7-25 42.7-59.2 47.7-90.7.4-2.5.9-5.4 1.1-6.5.8-4.1 1.8-19.2 1.8-26.5-.1-8.2-1.2-23.9-1.8-24.9-.2-.3-.7-2.9-1-5.6-.4-2.8-1.8-9.1-3.1-14-14.7-54.3-54-97.8-106.6-118.1-8.9-3.4-25.6-8.1-31.9-8.9-1.9-.3-5.9-.9-8.8-1.4-6.4-1-35.6-1.1-42.7-.1zm-18 51.3c1 3.4 2.4 8.2 3.1 10.7.7 2.5 2.7 9.2 4.4 15 9.2 30.9 9.2 30.4 2.2 33.6-7 3.3-14 8.3-19.7 14-5.4 5.5-11.5 13.4-11.5 15 0 1.7-5.2 7.4-6.8 7.4-3 0-58.6-17.3-60.4-18.8-2.9-2.4-2.1-6.3 3.5-17.3 7-13.8 14.8-24.2 27.1-36.4 14.3-14.1 30.7-24.8 46.7-30.5 7-2.4 8.9-1.2 11.4 7.3zm94.4-5.3c30.1 12.8 56.1 38 70.4 68 7.9 16.8 9.2 24 4.4 26-7.6 3.2-58 17-60 16.4-1.9-.4-3.1-2.1-5.1-7.4-6.6-16.8-19.9-31-35.9-38.4-6.6-3-6.6-4.1-.3-24.7 3.2-10.1 7.1-22.9 8.7-28.4 5-16.2 5.7-16.6 17.8-11.5zm217.7 92.4c3.8 12.8 5.7 21 5.2 21.9-.4.8-3.4 3-6.5 4.7-6.2 3.5-14.9 11.9-17.3 16.6-2.1 4.2-4.1 6.4-5.9 6.4-1.6 0-39.6-11.6-41.2-12.6-4-2.4 6.4-22 18.5-34.7 12.2-12.7 34.8-26.2 39.6-23.7.9.5 4 9.3 7.6 21.4zm66.4-16.6c18.3 9.6 32.5 24.2 41.8 42.7 3.7 7.4 6.3 15.8 5.2 17.4-.4.7-6.7 3-14.1 5.2-7.4 2.2-16.4 4.9-20.1 6-3.7 1.1-7.5 1.8-8.5 1.5-1-.4-3.4-4.1-5.5-8.4-4.3-9.3-11.4-16.8-20.6-21.9-5.6-3.1-6.2-3.8-5.8-6.2 1.1-6.4 11.9-39.7 13.3-40.8 1.8-1.4 5-.4 14.3 4.5zm-321.5 15.6c30.6 15.1 30.4 58.5-.4 73.2-6.4 3.1-7.8 3.4-16.1 3.9-30.3 1.6-51.6-30.8-38.3-58.2 4.9-10.3 13.2-17.4 24.8-21.6 3.8-1.3 7.1-1.7 13.8-1.4 7.7.4 9.8.9 16.2 4.1zm289.2 44.8c9.7 4.6 16 15.8 15 26.8-1.2 13.5-10.9 23.2-24.7 24.7-21.7 2.2-37-22.8-25.2-41.4 7.2-11.4 22.7-15.9 34.9-10.1zm-216.5 14.2c7.9 2.4 20.3 6.3 27.5 8.6 16.1 5 16.4 5.4 13.3 14.9-11.1 33.4-38.2 63.4-71.8 79.8-8.2 4-10.8 4.8-16.9 5.1l-7.2.4-2.6-8.8c-13.2-44.1-14.8-50.1-14.2-52.6.5-1.7 3-3.4 10.4-6.9 16.9-8.1 30.3-22.2 35.8-37.9 2.2-6.4 4.3-8.3 8.2-7.7 1.8.3 9.6 2.6 17.5 5.1zm-156.6 3.4c.6.4 2.3 2.9 3.8 5.6 8 14.5 18.6 24.8 31.9 31.2 8.2 3.9 9.7 5.1 9.7 7.6 0 2.8-16.9 56.9-18.6 59.5-1.8 2.8-3.8 2.9-10.9.2-6.6-2.5-22.3-10.4-24.6-12.5-.8-.8-1.9-1.4-2.4-1.4-.4 0-5-3.4-10.1-7.5-17.8-14.6-31.2-31.9-40.2-52.3-3.8-8.6-4-11.6-.9-13.6 1.2-.8 10.1-3.7 19.7-6.5 9.6-2.7 21.8-6.3 27-7.9 9.9-3.1 13.7-3.7 15.6-2.4zM626 247.1c9.1 2.8 17.5 5.4 18.8 5.6 1.2.3 2.9 1.4 3.6 2.5 1.2 1.7 1 2.9-1.4 9.1-6.7 17.5-19.2 33.2-34.9 44.2-7.1 4.9-20.6 11.4-25.5 12.2-3.2.5-3.7.3-4.6-2.2-2.3-6.1-12-40.7-11.6-41.4.3-.4 3.9-2.4 8-4.5 11.1-5.5 19.7-14.4 23.5-24.6 1.6-4 4.6-7.1 6.4-6.5.7.3 8.6 2.8 17.7 5.6zm-109.5 6.5c5 8.2 12.4 15.1 20.3 18.9 3.5 1.6 6.3 3.7 6.5 4.7.3 1.1-.3 4.5-1.3 7.6-1 3.1-3.5 11.1-5.5 17.7-6.1 20.1-5.5 19.5-14.9 15.8-15.8-6.1-32.7-19.7-42.9-34.6-3.8-5.5-10.7-19.6-10.7-21.8 0-.9.6-2.1 1.3-2.7 1.5-1.2 38.3-12.1 41.2-12.1 1.4-.1 3.2 1.8 6 6.5z"/></svg>